<svg width="1440" height="207" viewBox="0 0 1440 207" fill="none" xmlns="http://www.w3.org/2000/svg">
<path opacity="0.2" d="M-241 206C-223.898 172.785 52.2827 171.812 66.3245 109.212C95.865 -22.483 832.443 257.227 898.122 182.676C1029.24 33.8443 2410.56 57.539 2442 33.8444M-180.883 92.7171C-143.223 122.864 -21.4677 172.623 164.274 130.48C396.452 77.8022 521.87 -26.2845 794.471 7.67063C1067.07 41.6257 1368.7 170.147 1513.81 88.909M-238.137 196.419C-220.056 166.222 48.7706 167.665 70.9886 106.039C110.178 -21.8937 817.654 239.54 893.186 170.156C1031.04 30.0287 2360.95 58.7151 2397.8 32.2804M-235.274 186.839C-216.214 159.659 45.259 163.517 75.6532 102.865C124.492 -21.3044 802.865 221.854 888.251 157.636C1032.84 26.2131 2311.33 59.8912 2353.6 30.7163M-232.412 177.258C-212.373 153.095 41.7469 159.369 80.3173 99.6918C138.806 -20.7151 788.076 204.167 883.315 145.116C1034.64 22.3974 2261.72 61.0673 2309.4 29.1522M-229.549 167.678C-208.531 146.532 38.2353 155.222 84.9819 96.5187C153.12 -20.1255 773.287 186.48 878.379 132.597C1036.45 18.5821 2212.11 62.2437 2265.2 27.5885M-226.686 158.097C-204.689 139.969 34.7232 151.074 89.646 93.3453C167.433 -19.5362 758.497 168.794 873.443 120.077C1038.25 14.7664 2162.5 63.4199 2221 26.0244M-223.824 148.517C-200.848 133.405 31.211 146.927 94.3101 90.1719C181.747 -18.9469 743.708 151.107 868.507 107.557C1040.05 10.9508 2112.88 64.596 2176.8 24.4604M-220.961 138.936C-197.006 126.842 27.6994 142.779 98.9747 86.9985C196.061 -18.3576 728.919 133.42 863.572 95.0377C1041.85 7.13515 2063.27 65.7721 2132.6 22.8963M-218.098 129.355C-193.164 120.279 24.1873 138.632 103.639 83.825C210.374 -17.7683 714.129 115.734 858.636 82.5179C1043.65 3.31951 2013.66 66.9482 2088.4 21.3322M-215.236 119.775C-189.323 113.715 20.6752 134.484 108.303 80.6516C224.688 -17.179 699.34 98.0468 853.7 69.9982C1045.45 -0.496139 1964.05 68.1243 2044.2 19.7682M-212.373 110.194C-185.481 107.152 17.1636 130.337 112.967 77.4782C239.002 -16.5897 684.551 80.36 848.765 57.4784C1047.26 -4.31179 1914.43 69.3004 2000 18.2041M-209.51 100.614C-181.639 100.589 13.6515 126.189 117.632 74.3051C253.315 -16.0001 669.762 62.6736 843.829 44.9589C1049.06 -8.12712 1864.82 70.4769 1955.8 16.6403M-206.647 91.0333C-177.797 94.0253 10.1399 122.042 122.296 71.1317C267.629 -15.4108 654.973 44.9869 838.893 32.4392C1050.86 -11.9428 1815.21 71.653 1911.6 15.0763M-203.784 83.8208C-173.956 89.83 6.62774 120.262 126.96 70.3263C281.943 -12.4534 640.183 29.6682 833.957 22.2875C1052.66 -13.3903 1765.6 75.1972 1867.4 15.8803M-200.922 81.4358C-170.115 90.4623 3.11562 123.31 131.624 74.3486C296.256 -4.66841 625.394 19.1772 829.021 16.9634C1054.46 -10.0103 1715.98 83.569 1823.2 21.5119M-198.059 80.0954C-166.273 92.1392 -0.395994 127.403 136.289 79.4154C310.57 4.16111 610.605 9.73064 824.086 12.6839C1056.26 -5.5857 1666.37 92.9853 1779.01 28.1881M-195.196 81.3199C-162.431 96.3809 -3.90814 134.06 140.953 87.0471C324.884 15.5555 595.816 2.84903 819.15 10.9693C1058.06 1.40378 1616.76 104.967 1734.81 37.4291M-192.334 83.5628C-158.59 101.641 -7.42023 141.736 145.617 95.6971C339.197 27.9683 581.026 -3.01429 814.214 10.2729C1059.87 9.41155 1567.15 117.966 1690.61 47.6885M-189.471 85.8394C-154.748 106.935 -10.9318 149.446 150.282 104.381C353.511 40.4148 566.237 -8.84375 809.278 9.61043C1061.67 17.4532 1517.53 131 1646.41 57.9817M-186.608 88.1274C-150.906 112.24 -14.4439 157.167 154.946 113.076C367.825 52.8728 551.448 -14.6618 804.342 8.95931C1063.47 25.5062 1467.92 144.044 1602.21 68.2863M-183.745 90.4208C-147.064 117.551 -17.9556 164.893 159.61 121.777C382.139 65.336 536.659 -20.4746 799.407 8.31353C1065.27 33.5645 1418.31 157.094 1558.01 78.5962" stroke="#FBB000" stroke-width="0.893142"/>
</svg>
