<svg width="30" height="30" viewBox="0 0 30 30" fill="none" xmlns="http://www.w3.org/2000/svg">
<g clip-path="url(#clip0_48_15800)">
<path d="M28.1029 0.441162H1.89704C1.10293 0.441162 0.441162 1.10293 0.441162 1.89704V22.0588C0.441162 22.8529 1.10293 23.5147 1.89704 23.5147H11.1176L9.66175 26.0735C8.11763 26.2059 6.88234 27.5294 6.88234 29.1176C6.88234 29.3823 7.05881 29.5588 7.32352 29.5588H22.7647C23.0294 29.5588 23.2059 29.3823 23.2059 29.1176V29.0294C23.1618 27.4853 21.9265 26.2059 20.4265 26.1176L18.9706 23.5588H28.1912C28.9853 23.5588 29.647 22.897 29.647 22.1029V1.89704C29.5588 1.10293 28.897 0.441162 28.1029 0.441162ZM1.89704 1.32352H28.1029C28.4118 1.32352 28.6765 1.58822 28.6765 1.89704V18H1.32352V1.89704C1.32352 1.58822 1.58822 1.32352 1.89704 1.32352ZM22.2353 28.6765H7.76469C7.98528 27.7059 8.82351 26.9559 9.88234 26.9559H20.1176C21.1765 26.9559 22.0588 27.7059 22.2353 28.6765ZM19.3676 26.0735H10.6323L12.0882 23.5147H17.8676L19.3676 26.0735ZM28.1029 22.6323H1.89704C1.58822 22.6323 1.32352 22.4118 1.32352 22.0588V18.8382H28.6765V22.0588C28.6765 22.4118 28.4118 22.6323 28.1029 22.6323Z" fill="#5E6A95"/>
<path d="M15 19.2353C14.2059 19.2353 13.5441 19.8971 13.5441 20.6912C13.5441 21.4854 14.2059 22.1471 15 22.1471C15.7941 22.1471 16.4559 21.4854 16.4559 20.6912C16.4559 19.8971 15.7941 19.2353 15 19.2353ZM15 21.2648C14.6912 21.2648 14.4264 21.0001 14.4264 20.6912C14.4264 20.3824 14.6912 20.1177 15 20.1177C15.3088 20.1177 15.5735 20.3824 15.5735 20.6912C15.5735 21.0442 15.3088 21.2648 15 21.2648ZM3.35292 13.9412H12.9264C13.1912 13.9412 13.3676 13.7648 13.3676 13.5001V11.5589C13.3676 9.83829 11.9559 8.47065 10.2794 8.47065H9.61763C10.5882 7.94123 11.25 6.92653 11.25 5.77947C11.25 4.103 9.88233 2.73535 8.20586 2.73535C6.52939 2.73535 5.16174 4.103 5.16174 5.77947C5.16174 6.97065 5.82351 7.98535 6.7941 8.47065H6.0441C4.32351 8.47065 2.95586 9.88241 2.95586 11.5589V13.5001C2.91174 13.7648 3.08821 13.9412 3.35292 13.9412ZM5.99998 5.73535C5.99998 4.54418 6.97057 3.57359 8.16174 3.57359C9.35292 3.57359 10.3235 4.54418 10.3235 5.73535C10.3235 6.92653 9.35292 7.94123 8.16174 7.94123C6.97057 7.94123 5.99998 6.97065 5.99998 5.73535ZM3.7941 11.5589C3.7941 10.3236 4.8088 9.353 5.99998 9.353H10.2353C11.4706 9.353 12.4412 10.3677 12.4412 11.5589V13.0589H3.7941V11.5589ZM3.35292 16.2795H12.9264C13.1912 16.2795 13.3676 16.103 13.3676 15.8383C13.3676 15.5736 13.1912 15.3971 12.9264 15.3971H3.35292C3.08821 15.3971 2.91174 15.5736 2.91174 15.8383C2.91174 16.103 3.08821 16.2795 3.35292 16.2795ZM15.4412 13.9412H26.647C26.9117 13.9412 27.0882 13.7648 27.0882 13.5001C27.0882 13.2354 26.9117 13.0589 26.647 13.0589H15.4412C15.1764 13.0589 15 13.2354 15 13.5001C15 13.7648 15.1764 13.9412 15.4412 13.9412ZM15.4412 16.2795H26.647C26.9117 16.2795 27.0882 16.103 27.0882 15.8383C27.0882 15.5736 26.9117 15.3971 26.647 15.3971H15.4412C15.1764 15.3971 15 15.5736 15 15.8383C15 16.103 15.1764 16.2795 15.4412 16.2795ZM15.4412 11.5148H26.647C26.9117 11.5148 27.0882 11.3383 27.0882 11.0736V8.38241C27.0882 8.1177 26.9117 7.94123 26.647 7.94123H15.4412C15.1764 7.94123 15 8.1177 15 8.38241V11.0736C15 11.2942 15.1764 11.5148 15.4412 11.5148ZM15.8823 8.82359H26.2059V10.6324H15.8823V8.82359ZM15.4412 6.52947H26.647C26.9117 6.52947 27.0882 6.353 27.0882 6.08829V3.353C27.0882 3.08829 26.9117 2.91182 26.647 2.91182H15.4412C15.1764 2.91182 15 3.08829 15 3.353V6.04417C15 6.30888 15.1764 6.52947 15.4412 6.52947ZM15.8823 3.79418H26.2059V5.603H15.8823V3.79418Z" fill="#5E6A95"/>
</g>
<defs>
<clipPath id="clip0_48_15800">
<rect width="30" height="30" fill="white"/>
</clipPath>
</defs>
</svg>
