<svg width="30" height="30" viewBox="0 0 30 30" fill="none" xmlns="http://www.w3.org/2000/svg">
<g clip-path="url(#clip0_808_18882)">
<path d="M28.1032 0.441162H1.89729C1.10317 0.441162 0.441406 1.10293 0.441406 1.89704V22.0588C0.441406 22.8529 1.10317 23.5147 1.89729 23.5147H11.1179L9.66199 26.0735C8.11788 26.2059 6.88258 27.5294 6.88258 29.1176C6.88258 29.3823 7.05905 29.5588 7.32376 29.5588H22.7649C23.0296 29.5588 23.2061 29.3823 23.2061 29.1176V29.0294C23.162 27.4853 21.9267 26.2059 20.4267 26.1176L18.9708 23.5588H28.1914C28.9855 23.5588 29.6473 22.897 29.6473 22.1029V1.89704C29.5591 1.10293 28.8973 0.441162 28.1032 0.441162ZM1.89729 1.32352H28.1032C28.412 1.32352 28.6767 1.58822 28.6767 1.89704V18H1.32376V1.89704C1.32376 1.58822 1.58847 1.32352 1.89729 1.32352ZM22.2355 28.6765H7.76494C7.98552 27.7059 8.82376 26.9559 9.88258 26.9559H20.1179C21.1767 26.9559 22.0591 27.7059 22.2355 28.6765ZM19.3679 26.0735H10.6326L12.0885 23.5147H17.8679L19.3679 26.0735ZM28.1032 22.6323H1.89729C1.58847 22.6323 1.32376 22.4118 1.32376 22.0588V18.8382H28.6767V22.0588C28.6767 22.4118 28.412 22.6323 28.1032 22.6323Z" fill="white"/>
<path d="M14.9999 19.2353C14.2057 19.2353 13.544 19.8971 13.544 20.6912C13.544 21.4854 14.2057 22.1471 14.9999 22.1471C15.794 22.1471 16.4557 21.4854 16.4557 20.6912C16.4557 19.8971 15.794 19.2353 14.9999 19.2353ZM14.9999 21.2648C14.691 21.2648 14.4263 21.0001 14.4263 20.6912C14.4263 20.3824 14.691 20.1177 14.9999 20.1177C15.3087 20.1177 15.5734 20.3824 15.5734 20.6912C15.5734 21.0442 15.3087 21.2648 14.9999 21.2648ZM3.3528 13.9412H12.9263C13.191 13.9412 13.3675 13.7648 13.3675 13.5001V11.5589C13.3675 9.83829 11.9557 8.47065 10.2793 8.47065H9.6175C10.5881 7.94123 11.2499 6.92653 11.2499 5.77947C11.2499 4.103 9.88221 2.73535 8.20574 2.73535C6.52927 2.73535 5.16162 4.103 5.16162 5.77947C5.16162 6.97065 5.82339 7.98535 6.79397 8.47065H6.04397C4.32339 8.47065 2.95574 9.88241 2.95574 11.5589V13.5001C2.91162 13.7648 3.08809 13.9412 3.3528 13.9412ZM5.99986 5.73535C5.99986 4.54418 6.97044 3.57359 8.16162 3.57359C9.3528 3.57359 10.3234 4.54418 10.3234 5.73535C10.3234 6.92653 9.3528 7.94123 8.16162 7.94123C6.97044 7.94123 5.99986 6.97065 5.99986 5.73535ZM3.79397 11.5589C3.79397 10.3236 4.80868 9.353 5.99986 9.353H10.2352C11.4704 9.353 12.441 10.3677 12.441 11.5589V13.0589H3.79397V11.5589ZM3.3528 16.2795H12.9263C13.191 16.2795 13.3675 16.103 13.3675 15.8383C13.3675 15.5736 13.191 15.3971 12.9263 15.3971H3.3528C3.08809 15.3971 2.91162 15.5736 2.91162 15.8383C2.91162 16.103 3.08809 16.2795 3.3528 16.2795ZM15.441 13.9412H26.6469C26.9116 13.9412 27.0881 13.7648 27.0881 13.5001C27.0881 13.2354 26.9116 13.0589 26.6469 13.0589H15.441C15.1763 13.0589 14.9999 13.2354 14.9999 13.5001C14.9999 13.7648 15.1763 13.9412 15.441 13.9412ZM15.441 16.2795H26.6469C26.9116 16.2795 27.0881 16.103 27.0881 15.8383C27.0881 15.5736 26.9116 15.3971 26.6469 15.3971H15.441C15.1763 15.3971 14.9999 15.5736 14.9999 15.8383C14.9999 16.103 15.1763 16.2795 15.441 16.2795ZM15.441 11.5148H26.6469C26.9116 11.5148 27.0881 11.3383 27.0881 11.0736V8.38241C27.0881 8.1177 26.9116 7.94123 26.6469 7.94123H15.441C15.1763 7.94123 14.9999 8.1177 14.9999 8.38241V11.0736C14.9999 11.2942 15.1763 11.5148 15.441 11.5148ZM15.8822 8.82359H26.2057V10.6324H15.8822V8.82359ZM15.441 6.52947H26.6469C26.9116 6.52947 27.0881 6.353 27.0881 6.08829V3.353C27.0881 3.08829 26.9116 2.91182 26.6469 2.91182H15.441C15.1763 2.91182 14.9999 3.08829 14.9999 3.353V6.04417C14.9999 6.30888 15.1763 6.52947 15.441 6.52947ZM15.8822 3.79418H26.2057V5.603H15.8822V3.79418Z" fill="white"/>
</g>
<defs>
<clipPath id="clip0_808_18882">
<rect width="30" height="30" fill="white"/>
</clipPath>
</defs>
</svg>
