<svg width="30" height="30" viewBox="0 0 30 30" fill="none" xmlns="http://www.w3.org/2000/svg">
<path d="M18.75 15C18.75 16.25 18.375 17.5 17.75 18.625C17.125 19.625 16.375 20.5 15.375 21.25C14.125 22.125 12.75 22.5 11.125 22.5C10.5 22.5 9.875 22.375 9.25 22.25C10.125 22 10.875 21.625 11.625 21.125C12.625 20.5 13.375 19.625 14 18.5C14.625 17.5 15 16.25 15 15C15 13.75 14.625 12.5 14 11.375C13.5 10.375 12.75 9.5 11.75 8.75C11 8.25 10.25 8 9.375 7.75C10 7.625 10.625 7.5 11.25 7.5C12.875 7.5 14.25 8 15.5 8.75C16.5 9.375 17.25 10.25 17.875 11.375C18.375 12.5 18.75 13.75 18.75 15Z" fill="#DDDDDD"/>
<path d="M18.75 15C18.75 16.25 18.375 17.5 17.75 18.625C17.125 19.625 16.375 20.5 15.375 21.25C14.125 22.125 12.75 22.5 11.125 22.5C9.75 22.5 8.5 22.125 7.375 21.5C5.125 20.25 3.625 17.75 3.625 15C3.625 12.25 5.125 9.75 7.375 8.5C8.625 7.875 9.875 7.5 11.25 7.5C12.875 7.5 14.25 8 15.5 8.75C16.5 9.375 17.25 10.25 17.875 11.375C18.375 12.5 18.75 13.75 18.75 15Z" stroke="white" stroke-width="2" stroke-miterlimit="10" stroke-linecap="round" stroke-linejoin="round"/>
<path d="M22.5 15C22.5 17 21.625 18.75 20.125 19.875C19 20.75 17.625 21.25 16.25 21.25C16 21.25 15.75 21.25 15.5 21.25C16.5 20.625 17.25 19.75 17.875 18.625C18.375 17.5 18.75 16.25 18.75 15C18.75 13.75 18.375 12.5 17.75 11.375C17.125 10.375 16.375 9.5 15.375 8.75C15.625 8.75 15.875 8.75 16.125 8.75C17.625 8.75 19 9.25 20 10.125C21.625 11.25 22.5 13 22.5 15Z" fill="#DDDDDD"/>
<path d="M22.5 15C22.5 17 21.625 18.75 20.125 19.875C19 20.75 17.625 21.25 16.25 21.25C16 21.25 15.75 21.25 15.5 21.25C16.5 20.625 17.25 19.75 17.875 18.625C18.375 17.5 18.75 16.25 18.75 15C18.75 13.75 18.375 12.5 17.75 11.375C17.125 10.375 16.375 9.5 15.375 8.75C15.625 8.75 15.875 8.75 16.125 8.75C17.625 8.75 19 9.25 20 10.125C21.625 11.25 22.5 13 22.5 15Z" stroke="white" stroke-width="2" stroke-miterlimit="10" stroke-linecap="round" stroke-linejoin="round"/>
<path d="M26.25 15C26.25 17.75 24 20 21.25 20C20.875 20 20.5 20 20.125 19.875C21.625 18.75 22.5 17 22.5 15C22.5 13 21.625 11.25 20.125 10.125C20.5 10 20.875 10 21.25 10C24 10 26.25 12.25 26.25 15Z" fill="#DDDDDD"/>
<path d="M26.25 15C26.25 17.75 24 20 21.25 20C20.875 20 20.5 20 20.125 19.875C21.625 18.75 22.5 17 22.5 15C22.5 13 21.625 11.25 20.125 10.125C20.5 10 20.875 10 21.25 10C24 10 26.25 12.25 26.25 15Z" stroke="white" stroke-width="2" stroke-miterlimit="10" stroke-linecap="round" stroke-linejoin="round"/>
</svg>
