<svg width="1440" height="90" viewBox="0 0 1440 90" fill="none" xmlns="http://www.w3.org/2000/svg">
<rect width="1440" height="90" fill="white"/>
<rect width="3.64188" height="90" fill="#011D21"/>
<rect width="3.64188" height="90" transform="matrix(-1 0 0 1 720.364 0)" fill="#011D21"/>
<rect width="3.64188" height="90" transform="matrix(-1 0 0 1 1077.27 0)" fill="#011D21"/>
<rect x="1082.37" width="3.64188" height="90" fill="#011D21"/>
<rect width="3.64188" height="90" transform="matrix(-1 0 0 1 540.455 0)" fill="#011D21"/>
<rect x="179.909" width="3.64188" height="90" fill="#011D21"/>
<rect width="3.64188" height="90" transform="matrix(-1 0 0 1 648.983 0)" fill="#011D21"/>
<rect width="3.64188" height="90" transform="matrix(-1 0 0 1 897.36 0)" fill="#011D21"/>
<rect x="1262.28" width="3.64188" height="90" fill="#011D21"/>
<rect width="3.64188" height="90" transform="matrix(-1 0 0 1 469.074 0)" fill="#011D21"/>
<rect x="71.3809" width="3.64188" height="90" fill="#011D21"/>
<rect width="3.64188" height="90" transform="matrix(-1 0 0 1 714.537 0)" fill="#011D21"/>
<rect width="3.64188" height="90" transform="matrix(-1 0 0 1 1005.89 0)" fill="#011D21"/>
<rect x="1153.75" width="3.64188" height="90" fill="#011D21"/>
<rect width="3.64188" height="90" transform="matrix(-1 0 0 1 534.628 0)" fill="#011D21"/>
<rect x="251.29" width="3.64188" height="90" fill="#011D21"/>
<rect width="3.64188" height="90" transform="matrix(-1 0 0 1 643.156 0)" fill="#011D21"/>
<rect width="3.64188" height="90" transform="matrix(-1 0 0 1 825.979 0)" fill="#011D21"/>
<rect x="1333.66" width="3.64188" height="90" fill="#011D21"/>
<rect width="3.64188" height="90" transform="matrix(-1 0 0 1 463.247 0)" fill="#011D21"/>
<rect x="5.82697" width="3.64188" height="90" fill="#011D21"/>
<rect width="7.28376" height="90" transform="matrix(-1 0 0 1 708.71 0)" fill="#011D21"/>
<rect width="3.64188" height="90" transform="matrix(-1 0 0 1 1071.44 0)" fill="#011D21"/>
<rect x="1088.19" width="3.64188" height="90" fill="#011D21"/>
<rect width="7.28376" height="90" transform="matrix(-1 0 0 1 528.801 0)" fill="#011D21"/>
<rect x="185.736" width="3.64188" height="90" fill="#011D21"/>
<rect width="7.28376" height="90" transform="matrix(-1 0 0 1 637.329 0)" fill="#011D21"/>
<rect width="3.64188" height="90" transform="matrix(-1 0 0 1 891.533 0)" fill="#011D21"/>
<rect x="1268.1" width="3.64188" height="90" fill="#011D21"/>
<rect width="7.28376" height="90" transform="matrix(-1 0 0 1 457.42 0)" fill="#011D21"/>
<rect x="77.2079" width="3.64188" height="90" fill="#011D21"/>
<rect width="3.64188" height="90" transform="matrix(-1 0 0 1 664.279 0)" fill="#011D21"/>
<rect width="3.64188" height="90" transform="matrix(-1 0 0 1 1000.06 0)" fill="#011D21"/>
<rect x="1159.58" width="3.64188" height="90" fill="#011D21"/>
<rect width="3.64188" height="90" transform="matrix(-1 0 0 1 484.37 0)" fill="#011D21"/>
<rect x="257.117" width="3.64188" height="90" fill="#011D21"/>
<rect width="3.64188" height="90" transform="matrix(-1 0 0 1 592.898 0)" fill="#011D21"/>
<rect width="3.64188" height="90" transform="matrix(-1 0 0 1 820.152 0)" fill="#011D21"/>
<rect x="1339.48" width="3.64188" height="90" fill="#011D21"/>
<rect width="3.64188" height="90" transform="matrix(-1 0 0 1 412.989 0)" fill="#011D21"/>
<rect x="11.6541" width="7.28376" height="90" fill="#011D21"/>
<rect width="3.64188" height="90" transform="matrix(-1 0 0 1 546.282 0)" fill="#011D21"/>
<rect width="7.28376" height="90" transform="matrix(-1 0 0 1 1065.61 0)" fill="#011D21"/>
<rect x="1094.02" width="7.28376" height="90" fill="#011D21"/>
<rect width="3.64188" height="90" transform="matrix(-1 0 0 1 366.373 0)" fill="#011D21"/>
<rect x="191.563" width="7.28376" height="90" fill="#011D21"/>
<rect width="7.28376" height="90" transform="matrix(-1 0 0 1 658.452 0)" fill="#011D21"/>
<rect width="7.28376" height="90" transform="matrix(-1 0 0 1 885.706 0)" fill="#011D21"/>
<rect x="1273.93" width="7.28376" height="90" fill="#011D21"/>
<rect width="7.28376" height="90" transform="matrix(-1 0 0 1 478.543 0)" fill="#011D21"/>
<rect x="83.0349" width="7.28376" height="90" fill="#011D21"/>
<rect width="7.28376" height="90" transform="matrix(-1 0 0 1 587.071 0)" fill="#011D21"/>
<rect width="7.28376" height="90" transform="matrix(-1 0 0 1 994.234 0)" fill="#011D21"/>
<rect x="1165.4" width="7.28376" height="90" fill="#011D21"/>
<rect width="7.28376" height="90" transform="matrix(-1 0 0 1 407.162 0)" fill="#011D21"/>
<rect x="262.944" width="7.28376" height="90" fill="#011D21"/>
<rect width="7.28376" height="90" transform="matrix(-1 0 0 1 699.241 0)" fill="#011D21"/>
<rect width="7.28376" height="90" transform="matrix(-1 0 0 1 814.325 0)" fill="#011D21"/>
<rect x="1345.31" width="7.28376" height="90" fill="#011D21"/>
<rect width="7.28376" height="90" transform="matrix(-1 0 0 1 519.332 0)" fill="#011D21"/>
<rect x="56.085" width="3.64188" height="90" fill="#011D21"/>
<rect width="7.28376" height="90" transform="matrix(-1 0 0 1 627.86 0)" fill="#011D21"/>
<rect width="3.64188" height="90" transform="matrix(-1 0 0 1 1021.18 0)" fill="#011D21"/>
<rect x="1138.45" width="3.64188" height="90" fill="#011D21"/>
<rect width="7.28376" height="90" transform="matrix(-1 0 0 1 447.951 0)" fill="#011D21"/>
<rect x="235.994" width="3.64188" height="90" fill="#011D21"/>
<rect width="2.18513" height="90" transform="matrix(-1 0 0 1 689.772 0)" fill="#011D21"/>
<rect width="3.64188" height="90" transform="matrix(-1 0 0 1 841.275 0)" fill="#011D21"/>
<rect x="1318.36" width="3.64188" height="90" fill="#011D21"/>
<rect width="2.18513" height="90" transform="matrix(-1 0 0 1 509.863 0)" fill="#011D21"/>
<rect x="127.466" width="3.64188" height="90" fill="#011D21"/>
<rect width="2.18513" height="90" transform="matrix(-1 0 0 1 618.391 0)" fill="#011D21"/>
<rect width="3.64188" height="90" transform="matrix(-1 0 0 1 949.803 0)" fill="#011D21"/>
<rect x="1209.83" width="3.64188" height="90" fill="#011D21"/>
<rect width="2.18513" height="90" transform="matrix(-1 0 0 1 438.483 0)" fill="#011D21"/>
<rect x="307.375" width="3.64188" height="90" fill="#011D21"/>
<rect width="7.28376" height="90" transform="matrix(-1 0 0 1 606.737 0)" fill="#011D21"/>
<rect width="3.64188" height="90" transform="matrix(-1 0 0 1 769.894 0)" fill="#011D21"/>
<rect x="1389.74" width="3.64188" height="90" fill="#011D21"/>
<rect width="7.28376" height="90" transform="matrix(-1 0 0 1 426.828 0)" fill="#011D21"/>
<rect x="174.082" width="3.64188" height="90" fill="#011D21"/>
<rect width="7.28376" height="90" transform="matrix(-1 0 0 1 678.118 0)" fill="#011D21"/>
<rect width="3.64188" height="90" transform="matrix(-1 0 0 1 903.187 0)" fill="#011D21"/>
<rect x="1256.45" width="3.64188" height="90" fill="#011D21"/>
<rect width="7.28376" height="90" transform="matrix(-1 0 0 1 498.209 0)" fill="#011D21"/>
<rect x="353.991" width="3.64188" height="90" fill="#011D21"/>
<rect width="2.18513" height="90" transform="matrix(-1 0 0 1 597.269 0)" fill="#011D21"/>
<rect width="3.64188" height="90" transform="matrix(-1 0 0 1 723.278 0)" fill="#011D21"/>
<rect x="1436.36" width="3.64188" height="90" fill="#011D21"/>
<rect width="2.18513" height="90" transform="matrix(-1 0 0 1 417.36 0)" fill="#011D21"/>
<rect x="61.912" width="7.28376" height="90" fill="#011D21"/>
<rect width="7.28376" height="90" transform="matrix(-1 0 0 1 560.121 0)" fill="#011D21"/>
<rect width="7.28376" height="90" transform="matrix(-1 0 0 1 1015.36 0)" fill="#011D21"/>
<rect x="1144.28" width="7.28376" height="90" fill="#011D21"/>
<rect width="7.28376" height="90" transform="matrix(-1 0 0 1 380.212 0)" fill="#011D21"/>
<rect x="241.821" width="7.28376" height="90" fill="#011D21"/>
<rect width="2.18513" height="90" transform="matrix(-1 0 0 1 668.649 0)" fill="#011D21"/>
<rect width="7.28376" height="90" transform="matrix(-1 0 0 1 835.448 0)" fill="#011D21"/>
<rect x="1324.19" width="7.28376" height="90" fill="#011D21"/>
<rect width="2.18513" height="90" transform="matrix(-1 0 0 1 488.74 0)" fill="#011D21"/>
<rect x="133.293" width="7.28376" height="90" fill="#011D21"/>
<rect width="2.18513" height="90" transform="matrix(-1 0 0 1 550.652 0)" fill="#011D21"/>
<rect width="7.28376" height="90" transform="matrix(-1 0 0 1 943.976 0)" fill="#011D21"/>
<rect x="1215.66" width="7.28376" height="90" fill="#011D21"/>
<rect width="2.18513" height="90" transform="matrix(-1 0 0 1 370.744 0)" fill="#011D21"/>
<rect x="313.202" width="7.28376" height="90" fill="#011D21"/>
<rect width="2.18513" height="90" transform="matrix(-1 0 0 1 682.489 0)" fill="#011D21"/>
<rect width="7.28376" height="90" transform="matrix(-1 0 0 1 764.067 0)" fill="#011D21"/>
<rect x="1395.57" width="7.28376" height="90" fill="#011D21"/>
<rect width="2.18513" height="90" transform="matrix(-1 0 0 1 502.58 0)" fill="#011D21"/>
<rect x="21.1229" width="7.28376" height="90" fill="#011D21"/>
<rect width="2.18513" height="90" transform="matrix(-1 0 0 1 611.108 0)" fill="#011D21"/>
<rect width="7.28376" height="90" transform="matrix(-1 0 0 1 1056.15 0)" fill="#011D21"/>
<rect x="1103.49" width="7.28376" height="90" fill="#011D21"/>
<rect width="2.18513" height="90" transform="matrix(-1 0 0 1 431.199 0)" fill="#011D21"/>
<rect x="201.032" width="7.28376" height="90" fill="#011D21"/>
<rect width="2.18513" height="90" transform="matrix(-1 0 0 1 577.602 0)" fill="#011D21"/>
<rect width="7.28376" height="90" transform="matrix(-1 0 0 1 876.237 0)" fill="#011D21"/>
<rect x="1283.4" width="7.28376" height="90" fill="#011D21"/>
<rect width="2.18513" height="90" transform="matrix(-1 0 0 1 397.693 0)" fill="#011D21"/>
<rect x="92.5038" width="7.28376" height="90" fill="#011D21"/>
<rect width="2.18513" height="90" transform="matrix(-1 0 0 1 573.232 0)" fill="#011D21"/>
<rect width="7.28376" height="90" transform="matrix(-1 0 0 1 984.765 0)" fill="#011D21"/>
<rect x="1174.87" width="7.28376" height="90" fill="#011D21"/>
<rect width="2.18513" height="90" transform="matrix(-1 0 0 1 393.323 0)" fill="#011D21"/>
<rect x="272.413" width="7.28376" height="90" fill="#011D21"/>
<rect width="2.18513" height="90" transform="matrix(-1 0 0 1 564.492 0)" fill="#011D21"/>
<rect width="7.28376" height="90" transform="matrix(-1 0 0 1 804.856 0)" fill="#011D21"/>
<rect x="1354.78" width="7.28376" height="90" fill="#011D21"/>
<rect width="2.18513" height="90" transform="matrix(-1 0 0 1 384.583 0)" fill="#011D21"/>
<rect x="30.5918" width="2.18513" height="90" fill="#011D21"/>
<rect width="2.18513" height="90" transform="matrix(-1 0 0 1 1046.68 0)" fill="#011D21"/>
<rect x="1112.96" width="2.18513" height="90" fill="#011D21"/>
<rect x="210.501" width="2.18513" height="90" fill="#011D21"/>
<rect width="2.18513" height="90" transform="matrix(-1 0 0 1 866.768 0)" fill="#011D21"/>
<rect x="1292.87" width="2.18513" height="90" fill="#011D21"/>
<rect x="101.973" width="2.18513" height="90" fill="#011D21"/>
<rect width="2.18513" height="90" transform="matrix(-1 0 0 1 975.296 0)" fill="#011D21"/>
<rect x="1184.34" width="2.18513" height="90" fill="#011D21"/>
<rect x="281.882" width="2.18513" height="90" fill="#011D21"/>
<rect width="2.18513" height="90" transform="matrix(-1 0 0 1 795.387 0)" fill="#011D21"/>
<rect x="1364.25" width="2.18513" height="90" fill="#011D21"/>
<rect x="113.627" width="7.28376" height="90" fill="#011D21"/>
<rect width="7.28376" height="90" transform="matrix(-1 0 0 1 963.642 0)" fill="#011D21"/>
<rect x="1195.99" width="7.28376" height="90" fill="#011D21"/>
<rect x="293.536" width="7.28376" height="90" fill="#011D21"/>
<rect width="7.28376" height="90" transform="matrix(-1 0 0 1 783.733 0)" fill="#011D21"/>
<rect x="1375.9" width="7.28376" height="90" fill="#011D21"/>
<rect x="42.2458" width="7.28376" height="90" fill="#011D21"/>
<rect width="7.28376" height="90" transform="matrix(-1 0 0 1 1035.02 0)" fill="#011D21"/>
<rect x="1124.61" width="7.28376" height="90" fill="#011D21"/>
<rect x="222.155" width="7.28376" height="90" fill="#011D21"/>
<rect width="7.28376" height="90" transform="matrix(-1 0 0 1 855.114 0)" fill="#011D21"/>
<rect x="1304.52" width="7.28376" height="90" fill="#011D21"/>
<rect x="123.096" width="2.18513" height="90" fill="#011D21"/>
<rect width="2.18513" height="90" transform="matrix(-1 0 0 1 954.173 0)" fill="#011D21"/>
<rect x="1205.46" width="2.18513" height="90" fill="#011D21"/>
<rect x="303.005" width="2.18513" height="90" fill="#011D21"/>
<rect width="2.18513" height="90" transform="matrix(-1 0 0 1 774.264 0)" fill="#011D21"/>
<rect x="1385.37" width="2.18513" height="90" fill="#011D21"/>
<rect x="160.243" width="7.28376" height="90" fill="#011D21"/>
<rect width="7.28376" height="90" transform="matrix(-1 0 0 1 917.026 0)" fill="#011D21"/>
<rect x="1242.61" width="7.28376" height="90" fill="#011D21"/>
<rect x="340.152" width="7.28376" height="90" fill="#011D21"/>
<rect width="7.28376" height="90" transform="matrix(-1 0 0 1 737.117 0)" fill="#011D21"/>
<rect x="1422.52" width="7.28376" height="90" fill="#011D21"/>
<rect x="51.7147" width="2.18513" height="90" fill="#011D21"/>
<rect width="2.18513" height="90" transform="matrix(-1 0 0 1 1025.55 0)" fill="#011D21"/>
<rect x="1134.08" width="2.18513" height="90" fill="#011D21"/>
<rect x="231.624" width="2.18513" height="90" fill="#011D21"/>
<rect width="2.18513" height="90" transform="matrix(-1 0 0 1 845.645 0)" fill="#011D21"/>
<rect x="1313.99" width="2.18513" height="90" fill="#011D21"/>
<rect x="169.712" width="2.18513" height="90" fill="#011D21"/>
<rect width="2.18513" height="90" transform="matrix(-1 0 0 1 907.557 0)" fill="#011D21"/>
<rect x="1252.08" width="2.18513" height="90" fill="#011D21"/>
<rect x="349.621" width="2.18513" height="90" fill="#011D21"/>
<rect width="2.18513" height="90" transform="matrix(-1 0 0 1 727.648 0)" fill="#011D21"/>
<rect x="1431.99" width="2.18513" height="90" fill="#011D21"/>
<rect x="37.8755" width="2.18513" height="90" fill="#011D21"/>
<rect width="2.18513" height="90" transform="matrix(-1 0 0 1 1039.39 0)" fill="#011D21"/>
<rect x="1120.24" width="2.18513" height="90" fill="#011D21"/>
<rect x="217.785" width="2.18513" height="90" fill="#011D21"/>
<rect width="2.18513" height="90" transform="matrix(-1 0 0 1 859.484 0)" fill="#011D21"/>
<rect x="1300.15" width="2.18513" height="90" fill="#011D21"/>
<rect x="109.256" width="2.18513" height="90" fill="#011D21"/>
<rect width="2.18513" height="90" transform="matrix(-1 0 0 1 968.012 0)" fill="#011D21"/>
<rect x="1191.62" width="2.18513" height="90" fill="#011D21"/>
<rect x="289.165" width="2.18513" height="90" fill="#011D21"/>
<rect width="2.18513" height="90" transform="matrix(-1 0 0 1 788.103 0)" fill="#011D21"/>
<rect x="1371.53" width="2.18513" height="90" fill="#011D21"/>
<rect x="142.762" width="2.18513" height="90" fill="#011D21"/>
<rect width="2.18513" height="90" transform="matrix(-1 0 0 1 934.507 0)" fill="#011D21"/>
<rect x="1225.13" width="2.18513" height="90" fill="#011D21"/>
<rect x="322.671" width="2.18513" height="90" fill="#011D21"/>
<rect width="2.18513" height="90" transform="matrix(-1 0 0 1 754.598 0)" fill="#011D21"/>
<rect x="1405.04" width="2.18513" height="90" fill="#011D21"/>
<rect x="147.132" width="2.18513" height="90" fill="#011D21"/>
<rect width="2.18513" height="90" transform="matrix(-1 0 0 1 930.137 0)" fill="#011D21"/>
<rect x="1229.5" width="2.18513" height="90" fill="#011D21"/>
<rect x="327.041" width="2.18513" height="90" fill="#011D21"/>
<rect width="2.18513" height="90" transform="matrix(-1 0 0 1 750.228 0)" fill="#011D21"/>
<rect x="1409.41" width="2.18513" height="90" fill="#011D21"/>
<rect x="155.873" width="2.18513" height="90" fill="#011D21"/>
<rect width="2.18513" height="90" transform="matrix(-1 0 0 1 921.396 0)" fill="#011D21"/>
<rect x="1238.24" width="2.18513" height="90" fill="#011D21"/>
<rect x="335.781" width="2.18513" height="90" fill="#011D21"/>
<rect width="2.18513" height="90" transform="matrix(-1 0 0 1 741.487 0)" fill="#011D21"/>
<rect x="1418.15" width="2.18513" height="90" fill="#011D21"/>
<rect width="234" height="20" transform="translate(602.5 70)" fill="white"/>
<path d="M611.352 85V76.6H612.852L615.696 82.192L618.528 76.6H620.028V85H618.756V78.796L616.188 83.8H615.204L612.624 78.808V85H611.352ZM630.795 85L633.891 76.6H635.283L638.355 85H637.011L636.291 82.948H632.859L632.139 85H630.795ZM633.219 81.94H635.931L634.575 78.112L633.219 81.94ZM649.126 85V76.6H651.85C652.834 76.6 653.642 76.772 654.274 77.116C654.914 77.46 655.386 77.948 655.69 78.58C656.002 79.204 656.158 79.948 656.158 80.812C656.158 81.668 656.002 82.412 655.69 83.044C655.386 83.668 654.914 84.152 654.274 84.496C653.642 84.832 652.834 85 651.85 85H649.126ZM650.398 83.92H651.802C652.562 83.92 653.162 83.796 653.602 83.548C654.05 83.3 654.37 82.944 654.562 82.48C654.762 82.016 654.862 81.46 654.862 80.812C654.862 80.164 654.762 79.604 654.562 79.132C654.37 78.66 654.05 78.3 653.602 78.052C653.162 77.796 652.562 77.668 651.802 77.668H650.398V83.92ZM667.164 85V76.6H672.504V77.632H668.436V80.248H672.144V81.256H668.436V83.968H672.504V85H667.164ZM696.243 85V76.6H697.515V85H696.243ZM708.819 85V76.6H710.091L714.303 82.924V76.6H715.575V85H714.303L710.091 78.676V85H708.819ZM738.964 85L742.06 76.6H743.452L746.524 85H745.18L744.46 82.948H741.028L740.308 85H738.964ZM741.388 81.94H744.1L742.744 78.112L741.388 81.94ZM757.295 85V76.6H762.563V77.632H758.567V80.284H761.879V81.304H758.567V85H757.295ZM773.411 85V76.6H776.303C776.967 76.6 777.511 76.712 777.935 76.936C778.367 77.16 778.687 77.464 778.895 77.848C779.103 78.224 779.207 78.644 779.207 79.108C779.207 79.628 779.067 80.1 778.787 80.524C778.515 80.948 778.087 81.252 777.503 81.436L779.291 85H777.815L776.183 81.616H774.683V85H773.411ZM774.683 80.656H776.231C776.807 80.656 777.227 80.516 777.491 80.236C777.763 79.956 777.899 79.592 777.899 79.144C777.899 78.696 777.767 78.34 777.503 78.076C777.239 77.804 776.811 77.668 776.219 77.668H774.683V80.656ZM790.311 85V76.6H791.583V85H790.311ZM806.632 85.144C805.8 85.144 805.08 84.964 804.472 84.604C803.872 84.236 803.408 83.728 803.08 83.08C802.752 82.424 802.588 81.668 802.588 80.812C802.588 79.948 802.752 79.192 803.08 78.544C803.408 77.888 803.872 77.376 804.472 77.008C805.08 76.64 805.8 76.456 806.632 76.456C807.616 76.456 808.42 76.696 809.044 77.176C809.668 77.656 810.064 78.328 810.232 79.192H808.816C808.704 78.704 808.464 78.316 808.096 78.028C807.728 77.74 807.236 77.596 806.62 77.596C805.78 77.596 805.116 77.884 804.628 78.46C804.14 79.028 803.896 79.812 803.896 80.812C803.896 81.804 804.14 82.584 804.628 83.152C805.116 83.72 805.78 84.004 806.62 84.004C807.236 84.004 807.728 83.868 808.096 83.596C808.464 83.324 808.704 82.952 808.816 82.48H810.232C810.064 83.312 809.668 83.964 809.044 84.436C808.42 84.908 807.616 85.144 806.632 85.144ZM820.538 85L823.634 76.6H825.026L828.098 85H826.754L826.034 82.948H822.602L821.882 85H820.538ZM822.962 81.94H825.674L824.318 78.112L822.962 81.94Z" fill="#011D21"/>
</svg>
