<svg width="1440" height="420" viewBox="0 0 1440 420" fill="none" xmlns="http://www.w3.org/2000/svg">
<path opacity="0.2" d="M-302 418.991C-284.898 351.267 -8.71729 349.282 5.3245 221.642C34.865 -46.8813 771.443 523.442 837.122 371.433C968.24 67.9689 2349.56 116.282 2381 67.9691M-241.883 188.009C-204.223 249.478 -82.4677 350.935 103.274 265.007C335.452 157.598 460.87 -54.6325 733.471 14.6013C1006.07 83.835 1307.7 345.888 1452.81 180.245M-299.137 399.456C-281.056 337.884 -12.2294 340.825 9.98861 215.172C49.1785 -45.6797 756.654 487.379 832.186 345.905C970.041 60.1889 2299.95 118.68 2336.8 64.78M-296.274 379.921C-277.214 324.502 -15.741 332.369 14.6532 208.701C63.4925 -44.4781 741.865 451.316 827.251 320.378C971.843 52.4089 2250.33 121.078 2292.6 61.5909M-293.412 360.387C-273.373 311.119 -19.2531 323.912 19.3173 202.231C77.8059 -43.2766 727.076 415.253 822.315 294.85C973.645 44.6289 2200.72 123.476 2248.4 58.4018M-290.549 340.853C-269.531 297.737 -22.7647 315.456 23.9819 195.761C92.12 -42.0744 712.287 379.191 817.379 269.323C975.447 36.8495 2151.11 125.875 2204.2 55.2134M-287.686 321.318C-265.689 284.354 -26.2768 306.999 28.646 189.29C106.433 -40.8728 697.497 343.128 812.443 243.796C977.248 29.0695 2101.5 128.273 2160 52.0243M-284.824 301.783C-261.848 270.972 -29.789 298.542 33.3101 182.82C120.747 -39.6713 682.708 307.065 807.507 218.268C979.049 21.2895 2051.88 130.671 2115.8 48.8352M-281.961 282.249C-258.006 257.589 -33.3006 290.085 37.9747 176.349C135.061 -38.4697 667.919 271.002 802.572 192.741C980.851 13.5094 2002.27 133.069 2071.6 45.6461M-279.098 262.714C-254.164 244.206 -36.8127 281.628 42.6387 169.879C149.374 -37.2681 653.129 234.939 797.636 167.213C982.652 5.72944 1952.66 135.467 2027.4 42.457M-276.236 243.179C-250.323 230.824 -40.3248 273.171 47.3029 163.408C163.688 -36.0666 638.34 198.876 792.7 141.686C984.454 -2.0506 1903.05 137.865 1983.2 39.2679M-273.373 223.645C-246.481 217.441 -43.8364 264.714 51.9675 156.937C178.002 -34.865 623.551 162.813 787.765 116.158C986.256 -9.83062 1853.43 140.263 1939 36.0788M-270.51 204.111C-242.639 204.059 -47.3485 256.258 56.6315 150.468C192.315 -33.6628 608.762 126.751 782.829 90.6314C988.057 -17.61 1803.82 142.662 1894.8 32.8903M-267.647 184.576C-238.797 190.677 -50.8601 247.801 61.2962 143.997C206.629 -32.4612 593.973 90.6883 777.893 65.1038C989.859 -25.39 1754.21 145.06 1850.6 29.7012M-264.784 169.87C-234.956 182.123 -54.3723 244.173 65.9602 142.355C220.943 -26.4312 579.183 59.4539 772.957 44.4048C991.66 -28.3416 1704.6 152.287 1806.4 31.3406M-261.922 165.007C-231.115 183.412 -57.8844 250.388 70.6243 150.556C235.256 -10.5578 564.394 38.0628 768.021 33.5491C993.462 -21.4497 1654.98 169.356 1762.2 42.8234M-259.059 162.274C-227.273 186.831 -61.396 258.733 75.2889 160.887C249.57 7.44544 549.605 18.8016 763.086 24.8232C995.263 -12.4281 1605.37 188.556 1718.01 56.4359M-256.196 164.771C-223.431 195.48 -64.9081 272.307 79.953 176.448C263.884 30.6784 534.816 4.77013 758.15 21.3271C997.065 1.82329 1555.76 212.986 1673.81 75.2782M-253.334 169.344C-219.59 206.205 -68.4202 287.958 84.6171 194.085C278.197 55.9877 520.026 -7.18506 753.214 19.9073C998.866 18.151 1506.15 239.491 1629.61 96.1968M-250.471 173.986C-215.748 216.999 -71.9318 303.678 89.2817 211.792C292.511 81.366 505.237 -19.0712 748.278 18.5565C1000.67 34.5477 1456.53 266.066 1585.41 117.184M-247.608 178.651C-211.906 227.816 -75.4439 319.421 93.9458 229.521C306.825 106.767 490.448 -30.9342 743.342 17.2289C1002.47 50.9676 1406.92 292.664 1541.21 138.195M-244.745 183.327C-208.064 238.644 -78.9556 335.175 98.6104 247.261C321.139 132.18 475.659 -42.7863 738.407 15.9121C1004.27 67.3984 1357.31 319.273 1497.01 159.217" stroke="#FBB000" stroke-width="0.893142"/>
</svg>
