<svg width="30" height="30" viewBox="0 0 30 30" fill="none" xmlns="http://www.w3.org/2000/svg">
<path d="M2.22656 28.8282H5.38746C5.44816 28.8303 5.50868 28.8204 5.56547 28.7988C5.62226 28.7773 5.67416 28.7446 5.71813 28.7027C5.76209 28.6608 5.79724 28.6105 5.8215 28.5548C5.84575 28.4991 5.85863 28.4391 5.85938 28.3784V27.1875H24.1406V28.3784C24.1414 28.4391 24.1542 28.4991 24.1785 28.5548C24.2028 28.6105 24.2379 28.6608 24.2819 28.7027C24.3258 28.7446 24.3777 28.7773 24.4345 28.7988C24.4913 28.8204 24.5518 28.8303 24.6125 28.8282H27.7734C27.834 28.8303 27.8943 28.8202 27.9509 28.7986C28.0075 28.777 28.0591 28.7443 28.1028 28.7023C28.1466 28.6604 28.1814 28.6101 28.2053 28.5545C28.2293 28.4988 28.2418 28.439 28.2422 28.3784V25.0213C28.2423 24.8968 28.193 24.7774 28.1051 24.6892C28.0172 24.601 27.8979 24.5512 27.7734 24.5508H26.6602V5.44927H27.7734C27.8979 5.44888 28.0172 5.39913 28.1051 5.31092C28.193 5.22272 28.2423 5.10327 28.2422 4.97876V1.62169C28.2418 1.56112 28.2293 1.50125 28.2053 1.44561C28.1814 1.38997 28.1466 1.33969 28.1028 1.29776C28.0591 1.25582 28.0075 1.22308 27.9509 1.20147C27.8943 1.17985 27.834 1.16981 27.7734 1.17192H24.6125C24.5518 1.16975 24.4913 1.17973 24.4345 1.20128C24.3777 1.22284 24.3258 1.25553 24.2819 1.29743C24.2379 1.33934 24.2028 1.38961 24.1785 1.4453C24.1542 1.50098 24.1414 1.56095 24.1406 1.62169V2.81255H5.85938V1.62169C5.85863 1.56095 5.84575 1.50098 5.8215 1.4453C5.79724 1.38961 5.76209 1.33934 5.71813 1.29743C5.67416 1.25553 5.62226 1.22284 5.56547 1.20128C5.50868 1.17973 5.44816 1.16975 5.38746 1.17192H2.22656C2.16603 1.16981 2.10569 1.17985 2.04911 1.20147C1.99253 1.22308 1.94085 1.25582 1.89715 1.29776C1.85345 1.33969 1.8186 1.38997 1.79466 1.44561C1.77073 1.50125 1.7582 1.56112 1.75781 1.62169V4.97876C1.75773 5.10327 1.80704 5.22272 1.89491 5.31092C1.98279 5.39913 2.10206 5.44888 2.22656 5.44927H3.33984V24.5508H2.22656C2.10206 24.5512 1.98279 24.601 1.89491 24.6892C1.80704 24.7774 1.75773 24.8968 1.75781 25.0213V28.3784C1.7582 28.439 1.77073 28.4988 1.79466 28.5545C1.8186 28.6101 1.85345 28.6604 1.89715 28.7023C1.94085 28.7443 1.99253 28.777 2.04911 28.7986C2.10569 28.8202 2.16603 28.8303 2.22656 28.8282ZM27.3047 27.8907H25.0781V25.4883H27.3047V27.8907ZM25.0781 2.10942H27.3047V4.51177H25.0781V2.10942ZM2.69531 2.10942H4.92188V4.51177H2.69531V2.10942ZM4.27734 5.44927H5.38746C5.51229 5.44899 5.63195 5.39937 5.72035 5.31124C5.80875 5.2231 5.85873 5.10359 5.85938 4.97876V3.75005H24.1406V4.97876C24.1413 5.10359 24.1912 5.2231 24.2796 5.31124C24.368 5.39937 24.4877 5.44899 24.6125 5.44927H25.7227V24.5508H24.6125C24.4877 24.5511 24.368 24.6007 24.2796 24.6889C24.1912 24.777 24.1413 24.8965 24.1406 25.0213V26.25H5.85938V25.0213C5.85873 24.8965 5.80875 24.777 5.72035 24.6889C5.63195 24.6007 5.51229 24.5511 5.38746 24.5508H4.27734V5.44927ZM2.69531 25.4883H4.92188V27.8907H2.69531V25.4883Z" fill="white"/>
<path d="M10.6085 21.0936H10.0863C9.962 21.0936 9.84278 21.143 9.75487 21.2309C9.66696 21.3188 9.61758 21.4381 9.61758 21.5624C9.61758 21.6867 9.66696 21.8059 9.75487 21.8938C9.84278 21.9818 9.962 22.0311 10.0863 22.0311H10.8679L11.6777 24.9634C11.7048 25.0628 11.7636 25.1507 11.8451 25.2136C11.9266 25.2766 12.0265 25.3113 12.1295 25.3124H18.0555C18.1601 25.3113 18.2613 25.2756 18.3434 25.211C18.4255 25.1463 18.4839 25.0563 18.5095 24.955L19.2598 22.0311H19.9137C20.038 22.0311 20.1572 21.9818 20.2451 21.8938C20.333 21.8059 20.3824 21.6867 20.3824 21.5624C20.3824 21.4381 20.333 21.3188 20.2451 21.2309C20.1572 21.143 20.038 21.0936 19.9137 21.0936H19.5004L20.9169 15.5865C20.946 15.4745 20.9318 15.3556 20.8772 15.2535L15.4143 4.93401C15.3744 4.85874 15.3146 4.79579 15.2416 4.75193C15.1685 4.70806 15.0849 4.68494 14.9997 4.68506C14.9144 4.68517 14.8309 4.70852 14.7579 4.75258C14.685 4.79664 14.6254 4.85975 14.5857 4.93512L9.12304 15.2564C9.06711 15.36 9.05367 15.4814 9.08554 15.5948L10.6085 21.0936ZM17.692 24.3749H12.4863L11.8407 22.0311H18.2919L17.692 24.3749ZM15 13.3641C15.1637 13.3641 15.3237 13.4127 15.4598 13.5036C15.5959 13.5945 15.7019 13.7238 15.7646 13.875C15.8272 14.0262 15.8436 14.1926 15.8117 14.3532C15.7797 14.5137 15.7009 14.6611 15.5852 14.7769C15.4694 14.8926 15.322 14.9714 15.1615 15.0034C15.0009 15.0353 14.8345 15.0189 14.6833 14.9563C14.5321 14.8936 14.4028 14.7876 14.3119 14.6515C14.221 14.5154 14.1724 14.3554 14.1724 14.1917C14.1727 13.9723 14.2599 13.7619 14.4151 13.6068C14.5702 13.4516 14.7806 13.3644 15 13.3641ZM14.5312 7.04239V12.4903C14.1194 12.6038 13.7627 12.8627 13.5273 13.2191C13.2918 13.5755 13.1936 14.0052 13.2508 14.4285C13.3081 14.8518 13.5169 15.24 13.8385 15.5211C14.1602 15.8022 14.5728 15.9571 15 15.9571C15.4272 15.9571 15.8398 15.8022 16.1615 15.5211C16.4831 15.24 16.6919 14.8518 16.7492 14.4285C16.8064 14.0052 16.7082 13.5755 16.4727 13.2191C16.2373 12.8627 15.8806 12.6038 15.4687 12.4903V7.04239L19.9638 15.5289L18.5324 21.0936H11.5812L10.0386 15.5245L14.5312 7.04239Z" fill="white"/>
</svg>
