<svg width="32" height="27" viewBox="0 0 32 27" fill="none" xmlns="http://www.w3.org/2000/svg">
<path d="M31.5786 0.26625L30.7963 5.88921C29.2316 5.75768 27.9603 6.02075 26.9824 6.6784C26.0045 7.30318 25.3199 8.2239 24.9288 9.44056C24.5702 10.6243 24.505 12.0054 24.7332 13.5838H31.5786V27H18.2789V13.5838C18.2789 8.84867 19.3709 5.26444 21.555 2.83111C23.739 0.3649 27.0802 -0.490055 31.5786 0.26625ZM13.8783 0.26625L13.096 5.88921C11.5313 5.75768 10.26 6.02075 9.28208 6.6784C8.30417 7.30318 7.61962 8.2239 7.22846 9.44056C6.86989 10.6243 6.80469 12.0054 7.03287 13.5838H13.8783V27H0.578613V13.5838C0.578613 8.84867 1.67062 5.26444 3.85464 2.83111C6.03865 0.3649 9.37987 -0.490055 13.8783 0.26625Z" fill="#478CCC"/>
</svg>
